<svg width="20" height="20" viewBox="0 0 20 20" fill="none" xmlns="http://www.w3.org/2000/svg">
<path d="M18.6688 8.36364H18V8.33333H10V11.6667H14.9396C14.2792 13.5583 12.2875 14.8333 10 14.8333C7.05208 14.8333 4.66667 12.4479 4.66667 9.5C4.66667 6.55208 7.05208 4.16667 10 4.16667C11.3625 4.16667 12.5958 4.70833 13.5208 5.58333L15.6792 3.425C14.1833 2.02083 12.1917 1.16667 10 1.16667C5.39792 1.16667 1.66667 4.89792 1.66667 9.5C1.66667 14.1021 5.39792 17.8333 10 17.8333C14.6021 17.8333 18.3333 14.1021 18.3333 9.5C18.3333 9.11458 18.2979 8.73333 18.2292 8.36364H18.6688Z" fill="#FFC107"/>
<path d="M2.625 6.1125L5.2125 8.075C5.9375 6.2875 7.7875 5 10 5C11.3625 5 12.5958 5.54167 13.5208 6.41667L15.6792 4.25833C14.1833 2.85417 12.1917 2 10 2C6.67917 2 3.82917 3.84167 2.625 6.1125Z" fill="#FF3D00"/>
<path d="M10 17.8333C12.1458 17.8333 14.0958 17.0167 15.5792 15.6583L13.2583 13.6833C12.3708 14.3479 11.2542 14.7583 10 14.7583C7.7375 14.7583 5.7625 13.5208 5.0875 11.6833L2.5708 13.725C3.7458 16.0458 6.6292 17.8333 10 17.8333Z" fill="#4CAF50"/>
<path d="M18.6688 8.36364H18V8.33333H10V11.6667H14.9396C14.6229 12.5625 14.0292 13.3375 13.2583 13.8833L15.5792 15.8583C15.4167 16.0083 18.3333 13.9167 18.3333 9.5C18.3333 9.11458 18.2979 8.73333 18.2292 8.36364H18.6688Z" fill="#1976D2"/>
</svg>
